<?xml version="1.0" encoding="utf-8"?>
<!-- Generator: Adobe Illustrator 16.0.0, SVG Export Plug-In . SVG Version: 6.00 Build 0)  -->
<!DOCTYPE svg PUBLIC "-//W3C//DTD SVG 1.1//EN" "http://www.w3.org/Graphics/SVG/1.1/DTD/svg11.dtd">
<svg version="1.1" id="Layer_1" xmlns="http://www.w3.org/2000/svg" xmlns:xlink="http://www.w3.org/1999/xlink" x="0px" y="0px"
	 width="32px" height="32px" viewBox="0 0 32 32" enable-background="new 0 0 32 32" xml:space="preserve">
<path fill="#FFFFFF" d="M31.994,27.844c0,1.048-0.851,1.898-1.899,1.898H1.898C0.85,29.742,0,28.892,0,27.844V4.805
	c0-1.049,0.85-1.899,1.899-1.899h28.196c1.049,0,1.899,0.85,1.899,1.899V27.844z"/>
<g>
	<g>
		<path fill="#009688" d="M16.513,6.29c-0.504-0.479-1.487-0.872-2.184-0.872H6.972c-0.696,0-1.679,0.393-2.184,0.872L3.327,7.679
			C2.822,8.158,2.409,9.121,2.409,9.817v16.27c0,0.696,0.57,1.266,1.266,1.266h0.764c0.696,0,1.266-0.569,1.266-1.266v-3.736
			c0-0.696,0.57-1.266,1.266-1.266h7.357c0.696,0,1.266,0.569,1.266,1.266v3.736c0,0.696,0.57,1.266,1.266,1.266h0.765
			c0.696,0,1.266-0.569,1.266-1.266V9.817c0-0.696-0.413-1.659-0.918-2.138L16.513,6.29z"/>
	</g>
</g>
<g>
	<path fill="#009688" d="M28.813,8.586c0.696,0,1.266-0.57,1.266-1.266V6.71c0-0.696-0.569-1.266-1.266-1.266h-0.44
		c-0.696,0-1.835,0-2.531,0h-0.765c-0.696,0-1.835,0-2.531,0h-0.432c-0.696,0-1.266,0.57-1.266,1.266v0.61
		c0,0.696,0.569,1.266,1.266,1.266h0.432c0.696,0,1.266,0.57,1.266,1.266v13.16c0,0.696-0.569,1.266-1.266,1.266h-0.432
		c-0.696,0-1.266,0.569-1.266,1.266v0.574c0,0.696,0.569,1.266,1.266,1.266h6.699c0.696,0,1.266-0.569,1.266-1.266v-0.574
		c0-0.696-0.569-1.266-1.266-1.266h-0.44c-0.696,0-1.266-0.569-1.266-1.266V9.853c0-0.696,0.569-1.266,1.266-1.266H28.813z"/>
</g>
<polygon fill="#FFFFFF" points="8.851,8.268 12.271,8.268 12.271,11.687 15.691,11.687 15.691,15.107 12.271,15.107 12.271,18.526
	8.851,18.526 8.851,15.107 5.432,15.107 5.432,11.687 8.851,11.687 "/>
</svg>
